<?xml version="1.0" encoding="utf-8"?>
<!-- Generator: Adobe Illustrator 23.0.6, SVG Export Plug-In . SVG Version: 6.00 Build 0)  -->
<svg version="1.1" id="Layer_1" xmlns="http://www.w3.org/2000/svg" xmlns:xlink="http://www.w3.org/1999/xlink" x="0px" y="0px"
	 viewBox="0 0 46.9 38.6" style="enable-background:new 0 0 46.9 38.6;" xml:space="preserve">
<style type="text/css">
	.st0{fill:#FFFFFF;}
</style>
<title>Shape</title>
<desc>Created with Sketch.</desc>
<g id="Symbols">
	<g transform="translate(-501.000000, -29.000000)">
		<path id="Shape" class="st0" d="M535.9,39.3l-19,21.1c-0.3,0.3-0.7,0.5-1.2,0.5c-0.4,0-0.8-0.2-1.1-0.5l-8.3-8.3
			c-0.6-0.6-0.7-1.7-0.1-2.2c0.3-0.4,0.7-0.6,1.3-0.6c0.4,0,0.8,0.2,1.1,0.5l6.1,6.1c0,0,0.4,0.4,0.6,0.5c0.1,0.1,0.1,0.1,0.2,0.1
			c0.2,0.1,0.3,0.2,0.2,0.2c-0.1,0,0,0,0-0.1c0.1-0.1,0.2-0.1,0.2-0.2c0.1-0.1,0.5-0.5,0.5-0.5l17.1-19c0.3-0.3,0.7-0.5,1.2-0.5
			c0.4,0,0.8,0.1,1.1,0.4C536.5,37.5,536.5,38.6,535.9,39.3z"/>
	</g>
</g>
</svg>
